<svg xmlns="http://www.w3.org/2000/svg" viewBox="0 0 180 180" fill="none">
  <defs>
    
  </defs>

  
  <rect x="6" y="6" width="168" height="168" rx="36" fill="#F5EFE3" stroke="#3A2A1C" stroke-width="3" />
  <rect x="6" y="6" width="168" height="168" rx="36" stroke="#3A2A1C" stroke-width="5" stroke-linejoin="round" fill="none" />
  <rect x="14" y="14" width="152" height="152" rx="30" stroke="rgba(255,255,255,0.55)" stroke-width="2" fill="none" />

  
  <g transform="translate(20 20)">
    
    <path d="M 50 28 C 42 16, 42 8, 50 2" fill="none" stroke="#3A2A1C" stroke-width="3" stroke-linecap="round" stroke-linejoin="round" />
    <circle cx="50" cy="2" r="6" fill="#3A2A1C" stroke="none" />
    <circle cx="50" cy="2" r="6" fill="none" stroke="#3A2A1C" stroke-width="3" stroke-linecap="round" stroke-linejoin="round" />
    <path d="M 88 26 C 96 14, 96 6, 88 0" fill="none" stroke="#3A2A1C" stroke-width="3" stroke-linecap="round" stroke-linejoin="round" />
    <circle cx="88" cy="0" r="6" fill="#3A2A1C" stroke="none" />
    <circle cx="88" cy="0" r="6" fill="none" stroke="#3A2A1C" stroke-width="3" stroke-linecap="round" stroke-linejoin="round" />

    
    <ellipse cx="72" cy="58" rx="48" ry="42" fill="#F2A48F" stroke="none" />
    <ellipse cx="72" cy="58" rx="48" ry="42" fill="none" stroke="#3A2A1C" stroke-width="3" stroke-linecap="round" stroke-linejoin="round" />

    
    <circle cx="34" cy="52" r="5.5" fill="#3A2A1C" stroke="none" />
    <circle cx="34" cy="52" r="5.5" fill="none" stroke="#3A2A1C" stroke-width="3" stroke-linecap="round" stroke-linejoin="round" />
    <circle cx="32" cy="50" r="1.8" fill="rgba(255,255,255,0.45)" stroke="none" />

    
    <path d="M 50 50 Q 50 92 72 100 Q 102 96 104 56 Q 100 46 72 46 Q 54 46 50 50 Z" fill="#FAD9C4" stroke="none" />
    <path d="M 50 50 Q 50 92 72 100 Q 102 96 104 56 Q 100 46 72 46 Q 54 46 50 50 Z" fill="none" stroke="#3A2A1C" stroke-width="3" stroke-linecap="round" stroke-linejoin="round" />

    
    <path d="M 50 52 Q 58 42 68 48 Q 76 40 84 46 Q 92 40 104 56 Q 100 60 92 56 Q 84 62 76 56 Q 68 62 62 56 Q 56 62 52 58 Q 50 56 50 52 Z" fill="#5C4530" stroke="none" />
    <path d="M 50 52 Q 58 42 68 48 Q 76 40 84 46 Q 92 40 104 56 Q 100 60 92 56 Q 84 62 76 56 Q 68 62 62 56 Q 56 62 52 58 Q 50 56 50 52 Z" fill="none" stroke="#3A2A1C" stroke-width="3" stroke-linecap="round" stroke-linejoin="round" />
    <path d="M 102 60 Q 112 74 104 92 Q 96 82 96 74 Z" fill="#5C4530" stroke="none" />
    <path d="M 102 60 Q 112 74 104 92 Q 96 82 96 74 Z" fill="none" stroke="#3A2A1C" stroke-width="3" stroke-linecap="round" stroke-linejoin="round" />
    <path d="M 50 56 Q 40 76 50 92 Q 56 82 56 72 Z" fill="#5C4530" stroke="none" />
    <path d="M 50 56 Q 40 76 50 92 Q 56 82 56 72 Z" fill="none" stroke="#3A2A1C" stroke-width="3" stroke-linecap="round" stroke-linejoin="round" />

    
    <g transform="translate(54 68)">
      <path d="M -8 0 L 0 -4 L 0 6 Z" fill="#E48579" stroke="none" />
      <path d="M  8 0 L 0 -4 L 0 6 Z" fill="#E48579" stroke="none" />
      <path d="M -8 0 L 0 -4 L 0 6 Z M 8 0 L 0 -4 L 0 6 Z" fill="none" stroke="#3A2A1C" stroke-width="3" stroke-linecap="round" stroke-linejoin="round" />
      <circle cx="0" cy="1" r="2.4" fill="#E48579" stroke="none" />
      <circle cx="0" cy="1" r="2.4" fill="none" stroke="#3A2A1C" stroke-width="3" stroke-linecap="round" stroke-linejoin="round" />
    </g>

    
    <path d="M 64 76 Q 69 82 74 76" stroke-width="3.4" fill="none" stroke="#3A2A1C" stroke-linecap="round" stroke-linejoin="round" />
    <path d="M 86 76 Q 91 82 96 76" stroke-width="3.4" fill="none" stroke="#3A2A1C" stroke-linecap="round" stroke-linejoin="round" />
    <ellipse cx="62" cy="90" rx="5" ry="3" fill="#F7C9C4" stroke="none" />
    <ellipse cx="98" cy="88" rx="5" ry="3" fill="#F7C9C4" stroke="none" />
    <path d="M 76 86 Q 80 94 84 86 Q 82 90 80 92 Q 78 90 76 86 Z" fill="#3A2A1C" stroke="none" />
    <path d="M 76 86 Q 80 94 84 86 Q 82 90 80 92 Q 78 90 76 86 Z" fill="none" stroke="#3A2A1C" stroke-width="3" stroke-linecap="round" stroke-linejoin="round" />

    
    <ellipse cx="72" cy="138" rx="46" ry="20" fill="#F2A48F" stroke="none" />
    <ellipse cx="72" cy="138" rx="46" ry="20" fill="none" stroke="#3A2A1C" stroke-width="3" stroke-linecap="round" stroke-linejoin="round" />

    
    <path d="M 44 130 Q 50 120 62 122" fill="#F2A48F" stroke="none" />
    <path d="M 44 130 Q 50 120 62 122" fill="none" stroke="#3A2A1C" stroke-width="3" stroke-linecap="round" stroke-linejoin="round" />
    <path d="M 100 130 Q 94 120 82 122" fill="#F2A48F" stroke="none" />
    <path d="M 100 130 Q 94 120 82 122" fill="none" stroke="#3A2A1C" stroke-width="3" stroke-linecap="round" stroke-linejoin="round" />

    
    <g transform="translate(72 130)">
      <path d="M -22 0 L -32 -8 L -32 8 Z" fill="#3A2A1C" stroke="none" />
      <path d="M -22 0 L -32 -8 L -32 8 Z" fill="none" stroke="#3A2A1C" stroke-width="3" stroke-linecap="round" stroke-linejoin="round" />
      <path d="M 22 0 L 32 -8 L 32 8 Z" fill="#3A2A1C" stroke="none" />
      <path d="M 22 0 L 32 -8 L 32 8 Z" fill="none" stroke="#3A2A1C" stroke-width="3" stroke-linecap="round" stroke-linejoin="round" />
      <ellipse cx="0" cy="0" rx="22" ry="14" fill="#F2A48F" stroke="none" />
      <ellipse cx="0" cy="0" rx="22" ry="14" fill="none" stroke="#3A2A1C" stroke-width="3" stroke-linecap="round" stroke-linejoin="round" />
      <circle cx="-8" cy="-4" r="2.2" fill="#FBF8F1" />
      <circle cx="6" cy="-2" r="2.2" fill="#FBF8F1" />
      <circle cx="0" cy="6" r="2.4" fill="#FBF8F1" />
      <ellipse cx="-8" cy="-7" rx="6" ry="2" fill="rgba(255,255,255,0.45)" stroke="none" />
    </g>
  </g>
</svg>